<svg width="19" height="19" viewBox="0 0 19 19" fill="none" xmlns="http://www.w3.org/2000/svg">
<path d="M6.81543 6.8158V8.60527" stroke="#6B6B6B" stroke-width="1.2" stroke-linecap="round"/>
<path d="M11.7368 6.8158V8.60527" stroke="#6B6B6B" stroke-width="1.2" stroke-linecap="round"/>
<path d="M5.9209 10.8421C6.21914 11.5877 7.263 13.0789 9.49985 13.0789C11.7367 13.0789 12.3332 11.5877 12.6314 10.8421" stroke="#6B6B6B" stroke-width="1.2" stroke-linecap="round"/>
<path d="M16.7905 11.2895C16.9955 10.5793 17.1053 9.82879 17.1053 9.05263C17.1053 4.60529 13.5 1 9.05263 1C4.60529 1 1 4.60529 1 9.05263C1 13.5 4.60529 17.1053 9.05263 17.1053C9.82879 17.1053 10.5793 16.9955 11.2895 16.7905" stroke="#6B6B6B" stroke-linecap="round"/>
<path d="M13.5264 15.7632H18.0001" stroke="#6B6B6B" stroke-linecap="round"/>
<path d="M15.7632 13.5263L15.7632 18" stroke="#6B6B6B" stroke-linecap="round"/>
</svg>
