<?xml version="1.0" encoding="utf-8"?>
<!-- Generator: Adobe Illustrator 22.0.0, SVG Export Plug-In . SVG Version: 6.00 Build 0)  -->
<svg version="1.1" id="Layer_1" xmlns="http://www.w3.org/2000/svg" xmlns:xlink="http://www.w3.org/1999/xlink" x="0px" y="0px"
	 viewBox="0 0 64 42" style="enable-background:new 0 0 64 42;" xml:space="preserve">
<style type="text/css">
	.st0{fill:#FFFFFF;}
	.st1{fill:#003386;}
	.st2{fill:#CD1126;}
</style>
<path id="Rounded_Rectangle_7_copy_1_" class="st0" d="M5.8,0h26.3C35.4,0,38,2.6,38,5.7v30.6c0,3.2-2.6,5.7-5.8,5.7H5.8
	C2.6,42,0,39.4,0,36.3V5.7C0,2.6,2.6,0,5.8,0z"/>
<path class="st1" d="M0.8,12.4C0,12.9,0,14.4,0,14.5c0,1.4,1,2.4,2,3.4c0.8,0.8,2.3,2.1,4.6,3c1.9,0,3.7-0.1,5.6-0.1
	c-1.2-1.3-2.4-2.7-3.6-4C8.2,16.4,2.8,11.1,0.8,12.4z"/>
<path class="st1" d="M0.8,12.4c2-1.3,7.4,4,7.7,4.3c1.2,1.3,2.4,2.7,3.6,4c4.4-0.1,8.7-0.2,13.1-0.3c0.1-0.1,1.3-0.6,1.6-2
	c0.2-1-0.1-2.1-0.9-2.9C19.1,11,12.2,6.5,5.4,1.9C4.3,1.3,3.3,1,2.4,1.1C1,2.1,0,3.8,0,5.7v8.8C0,14.4,0,12.9,0.8,12.4z"/>
<path class="st1" d="M27.3,41c0.8-1.4,0.3-2.9,0.2-3c-5.1-5.7-10.2-11.5-15.3-17.2c-1.9,0-3.7,0.1-5.6,0.1c-2.3-0.9-3.8-2.1-4.6-3
	c-1-1-2-2-2-3.4v21.8C0,39.4,2.6,42,5.8,42h20.5C26.6,41.8,27,41.4,27.3,41z"/>
<path class="st2" d="M12.5,22.9c-1.8-2-1.1-3.7,1.7-3.7h9.4c2.8,0,3.2-1.3,0.9-2.9L5.2,2.9C3,1.3,1.1,2.3,1.1,5v0.2c0,2.7,0,7,0,9.5
	s0,6.7,0,9.5V36c0,2.7,2.3,5,5,5h17.5c2.8,0,3.5-1.7,1.7-3.7L12.5,22.9z"/>
<path class="st0" d="M7.9,18.6c2.6,0,4.7-2.3,4.7-5.3c-0.4,1.2-1.1,2.2-2.2,2.8L10,15.8l0.8-0.7l-0.9-0.3l0,0l0.5-0.9L9.5,14
	l0.2-1.1l-0.9,0.6l0,0l-0.3-1.1l-0.6,0.9l-0.6-0.9L7,13.5l0,0l-0.9-0.6L6.4,14l-1-0.2l0.5,0.9l0,0l-1,0.3l0.8,0.7l0,0L5.3,16
	c-0.9-0.6-1.7-1.6-2.2-2.8C3.2,16.1,5.3,18.6,7.9,18.6z"/>
<polygon class="st0" points="11.4,30.2 11.4,30.2 13.2,29.3 11.4,28.6 11.4,28.6 12.6,26.8 10.5,27.1 10.8,25 9.1,26.3 9.1,26.3 
	8.4,24.4 7.6,26.3 7.6,26.3 5.9,25 6.2,27.1 4.2,26.8 5.4,28.6 5.4,28.6 3.5,29.3 5.4,30.2 5.4,30.2 4.2,31.8 6.2,31.6 5.9,33.6 
	7.6,32.4 7.6,32.4 8.4,34.3 9.1,32.4 9.1,32.4 10.8,33.6 10.5,31.6 12.6,31.8 "/>
</svg>
