<svg width="21" height="17" viewBox="0 0 21 17" fill="none" xmlns="http://www.w3.org/2000/svg">
<mask id="path-1-inside-1_414_572" fill="white">
<path fill-rule="evenodd" clip-rule="evenodd" d="M3.9126 0.344482C2.25574 0.344482 0.912598 1.68763 0.912598 3.34449V11.3956C0.912598 13.0524 2.25574 14.3956 3.91259 14.3956H8.45033L10.0659 16.4909C10.4662 17.0101 11.2495 17.0101 11.6498 16.4909L13.2653 14.3956H17.428C19.0849 14.3956 20.428 13.0524 20.428 11.3956V3.34448C20.428 1.68763 19.0849 0.344482 17.428 0.344482H3.9126Z"/>
</mask>
<path d="M8.45033 14.3956L9.40065 13.6629L9.04037 13.1956H8.45033V14.3956ZM10.0659 16.4909L9.11558 17.2236H9.11558L10.0659 16.4909ZM11.6498 16.4909L12.6001 17.2236H12.6001L11.6498 16.4909ZM13.2653 14.3956V13.1956H12.6753L12.315 13.6629L13.2653 14.3956ZM2.1126 3.34449C2.1126 2.35037 2.91849 1.54448 3.9126 1.54448V-0.855518C1.593 -0.855518 -0.287402 1.02489 -0.287402 3.34449H2.1126ZM2.1126 11.3956V3.34449H-0.287402V11.3956H2.1126ZM3.91259 13.1956C2.91848 13.1956 2.1126 12.3897 2.1126 11.3956H-0.287402C-0.287402 13.7152 1.593 15.5956 3.91259 15.5956V13.1956ZM8.45033 13.1956H3.91259V15.5956H8.45033V13.1956ZM11.0162 15.7582L9.40065 13.6629L7.50001 15.1283L9.11558 17.2236L11.0162 15.7582ZM10.6994 15.7582C10.7795 15.6543 10.9362 15.6543 11.0162 15.7582L9.11558 17.2236C9.99627 18.3659 11.7194 18.3659 12.6001 17.2236L10.6994 15.7582ZM12.315 13.6629L10.6994 15.7582L12.6001 17.2236L14.2157 15.1283L12.315 13.6629ZM17.428 13.1956H13.2653V15.5956H17.428V13.1956ZM19.228 11.3956C19.228 12.3897 18.4221 13.1956 17.428 13.1956V15.5956C19.7476 15.5956 21.628 13.7152 21.628 11.3956H19.228ZM19.228 3.34448V11.3956H21.628V3.34448H19.228ZM17.428 1.54448C18.4221 1.54448 19.228 2.35037 19.228 3.34448H21.628C21.628 1.02489 19.7476 -0.855518 17.428 -0.855518V1.54448ZM3.9126 1.54448H17.428V-0.855518H3.9126V1.54448Z" fill="#767676" mask="url(#path-1-inside-1_414_572)"/>
<ellipse cx="6.32509" cy="7.36997" rx="0.773208" ry="0.780617" fill="#767676"/>
<ellipse cx="10.9644" cy="7.36997" rx="0.773208" ry="0.780617" fill="#767676"/>
<ellipse cx="15.6035" cy="7.36997" rx="0.773208" ry="0.780617" fill="#767676"/>
</svg>
