<svg width="24" height="34" viewBox="0 0 24 34" fill="none" xmlns="http://www.w3.org/2000/svg" xmlns:xlink="http://www.w3.org/1999/xlink">
<path d="M22.603,3.208C23.27,2.718 23.413,1.779 22.923,1.111C22.432,0.444 21.493,0.301 20.826,0.792L22.603,3.208ZM2,16.5L1.111,15.292L-0.532,16.5L1.111,17.708L2,16.5ZM20.826,32.208C21.493,32.699 22.432,32.556 22.923,31.889C23.413,31.221 23.27,30.282 22.603,29.792L20.826,32.208ZM20.826,0.792L1.111,15.292L2.889,17.708L22.603,3.208L20.826,0.792ZM1.111,17.708L20.826,32.208L22.603,29.792L2.889,15.292L1.111,17.708Z" fill="#000000"/>
</svg>
